<svg width="37" height="37" viewBox="0 0 37 37" fill="none" xmlns="http://www.w3.org/2000/svg">
<path d="M26.4012 9.80715H26.4163M10.5589 3.01758H25.6468C29.8132 3.01758 33.1908 6.39513 33.1908 10.5615V25.6495C33.1908 29.8159 29.8132 33.1934 25.6468 33.1934H10.5589C6.39244 33.1934 3.01489 29.8159 3.01489 25.6495V10.5615C3.01489 6.39513 6.39244 3.01758 10.5589 3.01758ZM24.138 17.155C24.3242 18.4107 24.1097 19.6931 23.5251 20.8199C22.9404 21.9466 22.0153 22.8603 20.8815 23.4311C19.7476 24.0018 18.4626 24.2004 17.2093 23.9988C15.956 23.7971 14.7982 23.2054 13.9006 22.3077C13.003 21.4101 12.4113 20.2523 12.2096 18.999C12.0079 17.7457 12.2066 16.4608 12.7773 15.3269C13.348 14.193 14.2617 13.2679 15.3885 12.6833C16.5153 12.0986 17.7977 11.8841 19.0534 12.0703C20.3342 12.2603 21.52 12.8571 22.4356 13.7727C23.3512 14.6883 23.9481 15.8741 24.138 17.155Z" stroke="white" stroke-width="1.50879" stroke-linecap="round" stroke-linejoin="round"/>
</svg>
