<svg width="37" height="37" viewBox="0 0 37 37" fill="none" xmlns="http://www.w3.org/2000/svg">
<path d="M24.6393 12.0703C27.0403 12.0703 29.3429 13.0241 31.0406 14.7218C32.7383 16.4196 33.6921 18.7222 33.6921 21.1231V31.6847H27.6569V21.1231C27.6569 20.3228 27.339 19.5553 26.7731 18.9893C26.2072 18.4234 25.4397 18.1055 24.6393 18.1055C23.839 18.1055 23.0715 18.4234 22.5056 18.9893C21.9397 19.5553 21.6218 20.3228 21.6218 21.1231V31.6847H15.5866V21.1231C15.5866 18.7222 16.5404 16.4196 18.2381 14.7218C19.9358 13.0241 22.2384 12.0703 24.6393 12.0703Z" stroke="white" stroke-width="1.50879" stroke-linecap="round" stroke-linejoin="round"/>
<path d="M9.55141 13.5791H3.51624V31.6847H9.55141V13.5791Z" stroke="white" stroke-width="1.50879" stroke-linecap="round" stroke-linejoin="round"/>
<path d="M6.53382 9.05275C8.20039 9.05275 9.55141 7.70173 9.55141 6.03517C9.55141 4.3686 8.20039 3.01758 6.53382 3.01758C4.86725 3.01758 3.51624 4.3686 3.51624 6.03517C3.51624 7.70173 4.86725 9.05275 6.53382 9.05275Z" stroke="white" stroke-width="1.50879" stroke-linecap="round" stroke-linejoin="round"/>
</svg>
