<svg width="37" height="37" viewBox="0 0 37 37" fill="none" xmlns="http://www.w3.org/2000/svg">
<path d="M35.1982 4.5264C33.7534 5.54556 32.1536 6.32505 30.4606 6.83486C29.5519 5.79003 28.3443 5.04949 27.001 4.71338C25.6577 4.37727 24.2436 4.46182 22.95 4.95558C21.6563 5.44935 20.5455 6.32851 19.7678 7.47416C18.99 8.61981 18.5829 9.97667 18.6015 11.3612V12.87C15.95 12.9388 13.3226 12.3507 10.9534 11.1582C8.58422 9.96572 6.54671 8.2058 5.02235 6.0352C5.02235 6.0352 -1.01283 19.6143 12.5663 25.6495C9.459 27.7588 5.75737 28.8164 2.00476 28.6671C15.5839 36.2111 32.1806 28.6671 32.1806 11.316C32.1792 10.8957 32.1388 10.4765 32.0599 10.0637C33.5998 8.54506 34.6865 6.62772 35.1982 4.5264Z" stroke="white" stroke-width="1.50879" stroke-linecap="round" stroke-linejoin="round"/>
</svg>
